<?xml version="1.0" encoding="UTF-8" standalone="no"?>
<!-- Created with Inkscape (http://www.inkscape.org/) -->

<svg
   version="1.1"
   id="svg54"
   width="228.96933"
   height="114.94173"
   viewBox="0 0 228.96933 114.94173"
   xmlns="http://www.w3.org/2000/svg"
   xmlns:svg="http://www.w3.org/2000/svg">
  <defs
     id="defs58" />
  <g
     id="g62"
     transform="matrix(1.3333333,0,0,-1.3333333,-0.9741243,114.45467)">
    <g
       id="g64"
       transform="matrix(0.1,0,0,0.1,0.73059327,-0.36529663)">
      <path
         d="M 0,196.648 H 148.02 V 151.227 H 72.1406 V 122.902 H 141.879 V 82.293 H 72.1406 V 5.875 H 0 v 190.773"
         style="fill:#18468b;fill-opacity:1;fill-rule:nonzero;stroke:none"
         id="path66" />
      <path
         d="m 222.301,55.5703 c 0,-9.6172 4.804,-16.0273 15.496,-16.0273 10.687,0 15.496,6.4101 15.496,16.0273 v 91.3787 c 0,9.617 -4.809,16.035 -15.496,16.035 -10.692,0 -15.496,-6.418 -15.496,-16.035 z m 15.496,146.9567 c 69.734,0 88.707,-22.98 88.707,-101.261 C 326.504,22.9766 307.531,0 237.797,0 168.059,0 149.09,22.9766 149.09,101.266 c 0,78.281 18.969,101.261 88.707,101.261"
         style="fill:#18468b;fill-opacity:1;fill-rule:nonzero;stroke:none"
         id="path68" />
      <path
         d="M 514.07,74.543 C 514.07,9.62109 470.785,0 427.5,0 384.215,0 340.93,9.62109 340.93,74.543 v 122.105 h 72.144 V 59.3164 c 0,-16.0312 3.203,-18.7031 14.426,-18.7031 11.227,0 14.426,2.6719 14.426,18.7031 V 196.648 H 514.07 V 74.543"
         style="fill:#18468b;fill-opacity:1;fill-rule:nonzero;stroke:none"
         id="path70" />
      <path
         d="m 531.438,196.648 h 93.257 l 40.61,-115.4253 h 0.535 V 196.648 h 61.453 V 5.875 H 634.574 L 593.43,118.363 h -0.535 V 5.875 h -61.457 v 190.773"
         style="fill:#18468b;fill-opacity:1;fill-rule:nonzero;stroke:none"
         id="path72" />
      <path
         d="m 816.531,46.4883 h 11.492 c 13.09,0 17.629,5.0781 17.629,19.7734 v 70.0043 c 0,14.695 -4.539,19.769 -17.629,19.769 h -11.492 z m -71.074,149.8907 0.266,0.269 h 101.8 c 49.696,0 70.27,-20.304 70.27,-63.859 V 69.7383 C 917.793,26.1836 897.219,5.875 847.523,5.875 H 745.457 v 190.504"
         style="fill:#18468b;fill-opacity:1;fill-rule:nonzero;stroke:none"
         id="path74" />
      <path
         d="m 997.688,72.6719 h 28.582 l -13.36,89.2461 h -0.53 z m -35.27,123.9761 h 98.852 L 1110.43,5.875 h -73.74 l -5.34,29.9297 H 991.805 L 986.461,5.875 h -74.273 l 50.23,190.773"
         style="fill:#18468b;fill-opacity:1;fill-rule:nonzero;stroke:none"
         id="path76" />
      <path
         d="m 1082.95,196.648 h 157.11 v -45.421 h -42.21 V 5.875 h -72.15 v 145.352 h -42.75 v 45.421"
         style="fill:#18468b;fill-opacity:1;fill-rule:nonzero;stroke:none"
         id="path78" />
      <path
         d="m 1243.54,196.648 h 72.14 V 5.875 h -72.14 v 190.773"
         style="fill:#18468b;fill-opacity:1;fill-rule:nonzero;stroke:none"
         id="path80" />
      <path
         d="m 1404.38,55.5703 c 0,-9.6172 4.82,-16.0273 15.5,-16.0273 10.69,0 15.5,6.4101 15.5,16.0273 v 91.3787 c 0,9.617 -4.81,16.035 -15.5,16.035 -10.68,0 -15.5,-6.418 -15.5,-16.035 z m 15.5,146.9567 c 69.74,0 88.71,-22.98 88.71,-101.261 C 1508.59,22.9766 1489.62,0 1419.88,0 c -69.73,0 -88.7,22.9766 -88.7,101.266 0,78.281 18.97,101.261 88.7,101.261"
         style="fill:#18468b;fill-opacity:1;fill-rule:nonzero;stroke:none"
         id="path82" />
      <path
         d="m 1521.41,196.648 h 93.26 l 40.61,-115.4253 h 0.53 V 196.648 h 61.46 V 5.875 h -92.72 l -41.15,112.488 h -0.53 V 5.875 h -61.46 v 190.773"
         style="fill:#18468b;fill-opacity:1;fill-rule:nonzero;stroke:none"
         id="path84" />
      <path
         d="M 427.754,658.938 H 412.98 V 502.395 h 14.774 c 16.816,0 22.715,7.257 22.715,28.203 v 100.05 c 0,21.043 -5.899,28.29 -22.715,28.29"
         style="fill:#18468b;fill-opacity:1;fill-rule:nonzero;stroke:none"
         id="path86" />
      <path
         d="m 671.074,670.754 c -13.73,0 -19.844,-9.18 -19.844,-22.91 V 517.199 c 0,-13.691 6.114,-22.929 19.844,-22.929 13.762,0 20.02,9.238 20.02,22.929 v 130.645 c 0,13.73 -6.258,22.91 -20.02,22.91"
         style="fill:#18468b;fill-opacity:1;fill-rule:nonzero;stroke:none"
         id="path88" />
      <path
         d="m 1458.4,446.145 h -91.84 c -8.2,0 -13.43,7.773 -13.43,19.894 v 60.02 c 0,23.289 -6.47,32.449 -23.72,32.449 h -12.98 V 446.145 h -92.86 v 272.746 h 143.66 c 53.69,0 79.8,-22.18 79.8,-75.645 0,-34.336 -18.57,-56.144 -48.85,-59.512 v -0.879 c 19.26,-2.226 47.76,-15.988 47.76,-49.609 v -61.504 c 0,-14.902 6.56,-22.48 12.73,-24.765 z m -251.23,207.851 h -84.81 v -40.527 h 76.92 v -58.094 h -76.92 v -44.219 h 84.81 v -65.011 h -177.62 v 272.746 h 177.62 z M 960.137,446.145 H 838.848 l -60.137,272.746 h 97.617 l 23.086,-186.379 h 0.664 l 24.043,186.379 h 97.969 z m -289.063,-8.387 c -89.668,0 -114.004,32.859 -114.004,144.773 0,111.875 24.336,144.785 114.004,144.785 89.817,0 114.18,-32.91 114.18,-144.785 0,-111.914 -24.363,-144.773 -114.18,-144.773 z M 543.262,535.52 c 0,-62.254 -26.492,-91.211 -90.43,-91.211 H 321.555 v 272.277 l 0.281,0.398 h 130.996 c 63.938,0 90.43,-29.023 90.43,-91.238 z M 1417.54,860.535 0,862.063 V 666.703 H 178.496 V 492.785 H 0 V 297.523 h 1420.59 c 0,0 242.69,-0.871 242.69,292.938 0,269.559 -245.74,270.074 -245.74,270.074"
         style="fill:#18468b;fill-opacity:1;fill-rule:nonzero;stroke:none"
         id="path90" />
      <path
         d="m 1329.08,666.184 h -12.65 v -55 h 14.7 c 16.92,0 23.11,13.75 23.11,29.347 0,19.551 -11.06,25.653 -25.16,25.653"
         style="fill:#18468b;fill-opacity:1;fill-rule:nonzero;stroke:none"
         id="path92" />
      <path
         d="m 1656.02,352.375 h 11.73 c 3.71,0 10.65,0 10.65,8.254 0,8.516 -6.66,8.516 -10.65,8.516 h -11.73 z m -7.45,23.156 h 19.18 c 3.99,0 18.36,0 18.36,-13.574 0,-1.594 0,-10.117 -10.11,-13.047 5.58,-1.328 7.46,-3.722 8.26,-10.39 0.8,-6.653 1.33,-11.7 3.18,-17.032 h -7.71 c -1.08,3.457 -1.6,5.586 -2.68,14.11 -0.8,8.254 -2.93,10.382 -11.7,10.382 h -9.33 v -24.492 h -7.45 z m -25.95,-27.422 c 0,-25.019 20.09,-44.726 44.31,-44.726 24.5,0 44.34,19.969 44.34,44.726 0,23.836 -19.3,44.336 -44.34,44.336 -24.22,0 -44.31,-19.972 -44.31,-44.336 z m 94.65,0 c 0,-28.214 -22.89,-50.586 -50.34,-50.586 -27.14,0 -50.31,22.372 -50.31,50.586 0,28.223 23.42,50.321 50.31,50.321 27.7,0 50.34,-22.364 50.34,-50.321"
         style="fill:#18468b;fill-opacity:1;fill-rule:nonzero;stroke:none"
         id="path94" />
    </g>
  </g>
</svg>
